/* XPM */
static char *result[] = {
/* columns rows colors chars-per-pixel */
"64 68 2 1 ",
"  c black",
". c #847E87",
/* pixels */
"                                                                ",
"                                                                ",
"                                                                ",
"                                                                ",
"    ............................    ........................    ",
"    ............................    ........................    ",
"    ............................    ........................    ",
"    ............................    ........................    ",
"    ............................    ........................    ",
"    ............................    ........................    ",
"    ............................    ........................    ",
"    ............................    ........................    ",
"    ............................    ........................    ",
"    ............................    ........................    ",
"    ............................    ........................    ",
"    ............................    ........................    ",
"                                                                ",
"                                                                ",
"                                                                ",
"                                                                ",
"    ................    ....................    ............    ",
"    ................    ....................    ............    ",
"    ................    ....................    ............    ",
"    ................    ....................    ............    ",
"    ................    ....................    ............    ",
"    ................    ....................    ............    ",
"    ................    ....................    ............    ",
"    ................    ....................    ............    ",
"    ................    ....................    ............    ",
"    ................    ....................    ............    ",
"    ................    ....................    ............    ",
"    ................    ....................    ............    ",
"                                                                ",
"                                                                ",
"                                                                ",
"                                                                ",
"    ............................    ........................    ",
"    ............................    ........................    ",
"    ............................    ........................    ",
"    ............................    ........................    ",
"    ............................    ........................    ",
"    ............................    ........................    ",
"    ............................    ........................    ",
"    ............................    ........................    ",
"    ............................    ........................    ",
"    ............................    ........................    ",
"    ............................    ........................    ",
"    ............................    ........................    ",
"                                                                ",
"                                                                ",
"                                                                ",
"                                                                ",
"    ................    ....................    ............    ",
"    ................    ....................    ............    ",
"    ................    ....................    ............    ",
"    ................    ....................    ............    ",
"    ................    ....................    ............    ",
"    ................    ....................    ............    ",
"    ................    ....................    ............    ",
"    ................    ....................    ............    ",
"    ................    ....................    ............    ",
"    ................    ....................    ............    ",
"    ................    ....................    ............    ",
"    ................    ....................    ............    ",
"                                                                ",
"                                                                ",
"                                                                ",
"                                                                "
};
